<svg width="105" height="34" viewBox="0 0 105 34" fill="none" xmlns="http://www.w3.org/2000/svg">
<path d="M32.1153 0.624023L33.6736 4.00233L37.3681 4.44037L34.6366 6.96632L35.3617 10.6154L32.1153 8.79817L28.869 10.6154L29.594 6.96632L26.8626 4.44037L30.5571 4.00233L32.1153 0.624023Z" fill="#5300A4"/>
<path d="M11.0123 21.8721L10.914 27.3783H11.7661C12.9897 24.7782 14.115 22.0032 15.1419 19.0535C16.1688 16.0819 16.6823 13.8205 16.6823 12.2691C16.6823 11.6573 16.5621 11.0674 16.3218 10.4993C17.9824 9.36309 19.5118 8.79499 20.9102 8.79499C23.0952 8.79499 24.1877 10.0295 24.1877 12.4985C24.1877 13.7221 23.849 15.2735 23.1717 17.1526C22.5162 19.0098 21.5329 21.3477 20.222 24.1664C18.911 26.9631 18.2118 28.4708 18.1244 28.6893L18.5832 30.4919C17.5781 31.3003 16.289 31.9886 14.7158 32.5567C13.1426 33.103 11.4056 33.3761 9.50465 33.3761C7.60372 33.3761 6.19441 33.0702 5.27672 32.4584C4.35903 31.8466 3.90018 30.8196 3.90018 29.3776L3.93296 23.347C3.93296 18.3434 3.32116 14.8146 2.09758 12.7607C1.52948 11.8212 0.830291 11.0674 0 10.4993C1.48578 9.36309 3.19007 8.79499 5.11285 8.79499C6.86083 8.79499 8.16089 9.48326 9.01303 10.8598C9.86517 12.2145 10.4223 13.8423 10.6845 15.7432C10.903 17.4694 11.0123 19.5123 11.0123 21.8721Z" fill="#0B0A0A"/>
<path d="M29.8426 33.3761C28.4879 33.3761 27.5047 33.0374 26.8929 32.3601C26.2811 31.6827 25.9752 30.6558 25.9752 29.2792C25.9752 27.8808 26.6744 24.1554 28.0728 18.103L26.2374 15.3499C28.9686 13.7112 31.1208 12.8918 32.694 12.8918C33.5898 12.8918 34.2235 13.0885 34.5949 13.4818C34.9664 13.8532 35.1521 14.465 35.1521 15.3172C35.1521 15.6449 34.7479 17.5677 33.9394 21.0855C33.131 24.6034 32.7268 27.1161 32.7268 28.6237C32.7268 30.1314 33.0654 31.1802 33.7428 31.7701C32.5192 32.8408 31.2191 33.3761 29.8426 33.3761Z" fill="#0B0A0A"/>
<path d="M43.7618 31.7373C42.5601 32.6769 41.413 33.1467 40.3205 33.1467C39.228 33.1467 38.4086 32.8408 37.8624 32.229C37.3162 31.6172 37.043 30.8524 37.043 29.9347C37.043 28.9952 37.3817 28.1321 38.0591 27.3455C38.7364 26.5589 39.6978 26.0892 40.9432 25.9362L46.3183 20.2334C43.6089 20.146 41.7407 19.7418 40.7138 19.0207C39.6869 18.2997 39.1734 17.1963 39.1734 15.7105C39.1734 15.1205 39.2936 14.1264 39.5339 12.728C40.9978 13.3398 42.6912 13.8969 44.614 14.3995C46.5368 14.8802 48.0444 15.1424 49.1369 15.1861C49.4865 14.5087 49.9999 13.9625 50.6773 13.5473C51.3765 13.1103 52.1959 12.8918 53.1354 12.8918C54.0968 12.8918 54.8724 13.1759 55.4624 13.744C56.0523 14.3121 56.3473 15.055 56.3473 15.9727C56.3473 17.5677 55.5498 18.7148 53.9548 19.414L47.1704 27.1816C48.5906 27.6186 49.7159 27.8481 50.5462 27.8699L55.0035 26.1329C55.4624 27.3127 55.6918 28.438 55.6918 29.5087C55.6918 30.5574 55.1893 31.4642 54.1842 32.229C53.1791 32.9937 51.9664 33.3761 50.5462 33.3761C49.126 33.3761 47.6292 33.103 46.0561 32.5567C45.5098 32.3819 44.7451 32.1088 43.7618 31.7373Z" fill="#0B0A0A"/>
<path d="M76.8978 12.8918C79.5416 12.8918 80.8635 14.2138 80.8635 16.8576C80.8635 17.9938 80.5358 19.9166 79.8803 22.626C79.2466 25.3353 78.9298 27.3783 78.9298 28.7548C78.9298 30.1314 79.1592 31.1365 79.6181 31.7701C78.46 32.8408 77.2365 33.3761 75.9473 33.3761C73.4346 33.3761 72.1782 32.0214 72.1782 29.312C72.1782 28.3069 72.506 26.6026 73.1615 24.1991C73.817 21.7957 74.1447 20.2334 74.1447 19.5123C74.1447 18.5291 73.7733 18.0375 73.0304 18.0375C72.4186 18.0375 71.7194 18.3106 70.9328 18.8569C70.1462 19.3812 69.3815 20.1023 68.6386 21.02C67.9175 21.9158 67.3057 23.0629 66.8032 24.4613C66.3007 25.8379 66.0494 27.2472 66.0494 28.6893C66.0494 30.1095 66.2788 31.1365 66.7376 31.7701C65.5796 32.8408 64.356 33.3761 63.0669 33.3761C60.5542 33.3761 59.2978 32.0214 59.2978 29.312C59.2978 27.6951 59.7348 24.4176 60.6088 19.4796C61.3517 15.1314 61.7777 12.6952 61.887 12.1708L60.0516 9.54881C62.7828 7.95377 64.935 7.15625 66.5082 7.15625C67.4041 7.15625 68.0377 7.34197 68.4091 7.71342C68.7806 8.06302 68.9663 8.65297 68.9663 9.48326C68.9663 11.0564 68.8134 12.7717 68.5075 14.6289C68.2016 16.4861 67.9175 17.8518 67.6553 18.7258L67.9831 18.8896C70.321 14.8911 73.2926 12.8918 76.8978 12.8918Z" fill="#0B0A0A"/>
<path d="M96.3475 28.5254L96.0197 28.3615C95.4298 29.9347 94.5777 31.1692 93.4633 32.0651C92.3708 32.9391 91.1472 33.3761 89.7926 33.3761C87.9353 33.3761 86.4495 32.6769 85.3352 31.2785C84.2209 29.8801 83.6637 28.0119 83.6637 25.674C83.6637 22.0469 84.8764 19.0098 87.3017 16.5626C89.7489 14.1154 92.786 12.8918 96.413 12.8918C97.3526 12.8918 98.2156 12.9792 99.0022 13.154C99.1333 13.7658 99.2098 14.3012 99.2317 14.76C100.324 14.0608 101.449 13.7112 102.607 13.7112C104.202 13.7112 105 14.5743 105 16.3004C105 16.9122 104.65 18.7585 103.951 21.8394C103.274 24.9202 102.935 27.2035 102.935 28.6893C102.935 30.1751 103.274 31.202 103.951 31.7701C102.728 32.8408 101.449 33.3761 100.117 33.3761C98.8056 33.3761 97.8442 32.9828 97.2324 32.1962C96.6425 31.4096 96.3475 30.186 96.3475 28.5254ZM89.8253 24.068C89.8253 25.1387 90.0438 25.969 90.4808 26.5589C90.9397 27.127 91.5842 27.4111 92.4145 27.4111C93.2448 27.4111 94.0642 27.1052 94.8726 26.4934C95.6811 25.8816 96.3584 25.0404 96.9047 23.9697C97.1013 21.7629 97.5274 19.1518 98.1829 16.1365C95.976 16.1365 94.0314 16.9341 92.349 18.5291C90.6665 20.1241 89.8253 21.9705 89.8253 24.068Z" fill="#0B0A0A"/>
</svg>
