<svg width="39" height="39" viewBox="0 0 39 39" fill="none" xmlns="http://www.w3.org/2000/svg">
<g filter="url(#filter0_b_988_38)">
<circle cx="19.3609" cy="19.3604" r="18.8351" fill="#5300A4"/>
</g>
<path d="M12.1855 15.7736L13.9793 26.5365H24.7422L26.536 15.7736M12.1855 15.7736L13.7248 17.005C14.7257 17.8058 15.2261 18.2061 15.7306 18.2682C16.1725 18.3227 16.6189 18.2108 16.9829 17.9544C17.3984 17.6617 17.6509 17.0726 18.1558 15.8945L19.3607 13.0829M12.1855 15.7736C12.6808 15.7736 13.0824 15.372 13.0824 14.8767C13.0824 14.3813 12.6808 13.9798 12.1855 13.9798C11.6901 13.9798 11.2886 14.3813 11.2886 14.8767C11.2886 15.372 11.6901 15.7736 12.1855 15.7736ZM26.536 15.7736L24.9967 17.005C23.9958 17.8058 23.4954 18.2061 22.9909 18.2682C22.549 18.3227 22.1026 18.2108 21.7386 17.9544C21.3231 17.6617 21.0706 17.0726 20.5657 15.8945L19.3607 13.0829M26.536 15.7736C27.0313 15.7736 27.4329 15.372 27.4329 14.8767C27.4329 14.3813 27.0313 13.9798 26.536 13.9798C26.0406 13.9798 25.6391 14.3813 25.6391 14.8767C25.6391 15.372 26.0406 15.7736 26.536 15.7736ZM19.3607 13.0829C19.8561 13.0829 20.2576 12.6813 20.2576 12.186C20.2576 11.6906 19.8561 11.2891 19.3607 11.2891C18.8654 11.2891 18.4638 11.6906 18.4638 12.186C18.4638 12.6813 18.8654 13.0829 19.3607 13.0829ZM19.3607 12.186H19.3697M26.536 14.8767H26.545M12.1855 14.8767H12.1945" stroke="white" stroke-width="1.34536" stroke-linecap="round" stroke-linejoin="round"/>
<defs>
<filter id="filter0_b_988_38" x="-3.95866" y="-3.95915" width="46.639" height="46.639" filterUnits="userSpaceOnUse" color-interpolation-filters="sRGB">
<feFlood flood-opacity="0" result="BackgroundImageFix"/>
<feGaussianBlur in="BackgroundImageFix" stdDeviation="2.24227"/>
<feComposite in2="SourceAlpha" operator="in" result="effect1_backgroundBlur_988_38"/>
<feBlend mode="normal" in="SourceGraphic" in2="effect1_backgroundBlur_988_38" result="shape"/>
</filter>
</defs>
</svg>
